<svg xmlns="http://www.w3.org/2000/svg" viewBox="0 0 1200 770" width="1200" height="770" role="img" aria-labelledby="t d" font-family="Microsoft JhengHei, Noto Sans TC, sans-serif">
  <title id="t">不能用？先看第一格</title>
  <desc id="d">判了不能用，先單獨打開首幀圖對照角色設定。左邊：第一格就錯了，道具、服裝、構圖或身分特徵不對，影片只是放大錯誤，先修圖。右邊：首幀是對的，動起來才錯，例如動作沒發生、方向相反或倒放、鏡頭亂動，這時才改指令重新生成。</desc>
  <defs>
    <marker id="arr" viewBox="0 0 10 10" refX="9" refY="5" markerUnits="userSpaceOnUse" markerWidth="18" markerHeight="18" orient="auto-start-reverse">
      <path d="M0,0 L10,5 L0,10 z" fill="#374151"/>
    </marker>
  </defs>
  <rect width="1200" height="770" fill="#FFFFFF"/>
  <text x="48" y="80" font-size="48" font-weight="700" fill="#1F2937">不能用？先看第一格</text>
  <text x="48" y="126" font-size="26" fill="#4B5563">單獨打開首幀圖，對照角色設定，就知道錯在哪</text>
  <rect x="420" y="158" width="492" height="102" rx="8" fill="#374151"/>
  <rect x="436" y="164" width="10" height="8" rx="2" fill="#FFFFFF"/>
  <rect x="436" y="246" width="10" height="8" rx="2" fill="#FFFFFF"/>
  <rect x="454" y="164" width="10" height="8" rx="2" fill="#FFFFFF"/>
  <rect x="454" y="246" width="10" height="8" rx="2" fill="#FFFFFF"/>
  <rect x="472" y="164" width="10" height="8" rx="2" fill="#FFFFFF"/>
  <rect x="472" y="246" width="10" height="8" rx="2" fill="#FFFFFF"/>
  <rect x="490" y="164" width="10" height="8" rx="2" fill="#FFFFFF"/>
  <rect x="490" y="246" width="10" height="8" rx="2" fill="#FFFFFF"/>
  <rect x="508" y="164" width="10" height="8" rx="2" fill="#FFFFFF"/>
  <rect x="508" y="246" width="10" height="8" rx="2" fill="#FFFFFF"/>
  <rect x="432" y="178" width="84" height="62" rx="4" fill="#FFF8E7" stroke="#E5A300" stroke-width="5"/>
  <rect x="532" y="164" width="10" height="8" rx="2" fill="#FFFFFF"/>
  <rect x="532" y="246" width="10" height="8" rx="2" fill="#FFFFFF"/>
  <rect x="550" y="164" width="10" height="8" rx="2" fill="#FFFFFF"/>
  <rect x="550" y="246" width="10" height="8" rx="2" fill="#FFFFFF"/>
  <rect x="568" y="164" width="10" height="8" rx="2" fill="#FFFFFF"/>
  <rect x="568" y="246" width="10" height="8" rx="2" fill="#FFFFFF"/>
  <rect x="586" y="164" width="10" height="8" rx="2" fill="#FFFFFF"/>
  <rect x="586" y="246" width="10" height="8" rx="2" fill="#FFFFFF"/>
  <rect x="604" y="164" width="10" height="8" rx="2" fill="#FFFFFF"/>
  <rect x="604" y="246" width="10" height="8" rx="2" fill="#FFFFFF"/>
  <rect x="528" y="178" width="84" height="62" rx="4" fill="#E5E7EB"/>
  <rect x="628" y="164" width="10" height="8" rx="2" fill="#FFFFFF"/>
  <rect x="628" y="246" width="10" height="8" rx="2" fill="#FFFFFF"/>
  <rect x="646" y="164" width="10" height="8" rx="2" fill="#FFFFFF"/>
  <rect x="646" y="246" width="10" height="8" rx="2" fill="#FFFFFF"/>
  <rect x="664" y="164" width="10" height="8" rx="2" fill="#FFFFFF"/>
  <rect x="664" y="246" width="10" height="8" rx="2" fill="#FFFFFF"/>
  <rect x="682" y="164" width="10" height="8" rx="2" fill="#FFFFFF"/>
  <rect x="682" y="246" width="10" height="8" rx="2" fill="#FFFFFF"/>
  <rect x="700" y="164" width="10" height="8" rx="2" fill="#FFFFFF"/>
  <rect x="700" y="246" width="10" height="8" rx="2" fill="#FFFFFF"/>
  <rect x="624" y="178" width="84" height="62" rx="4" fill="#E5E7EB"/>
  <rect x="724" y="164" width="10" height="8" rx="2" fill="#FFFFFF"/>
  <rect x="724" y="246" width="10" height="8" rx="2" fill="#FFFFFF"/>
  <rect x="742" y="164" width="10" height="8" rx="2" fill="#FFFFFF"/>
  <rect x="742" y="246" width="10" height="8" rx="2" fill="#FFFFFF"/>
  <rect x="760" y="164" width="10" height="8" rx="2" fill="#FFFFFF"/>
  <rect x="760" y="246" width="10" height="8" rx="2" fill="#FFFFFF"/>
  <rect x="778" y="164" width="10" height="8" rx="2" fill="#FFFFFF"/>
  <rect x="778" y="246" width="10" height="8" rx="2" fill="#FFFFFF"/>
  <rect x="796" y="164" width="10" height="8" rx="2" fill="#FFFFFF"/>
  <rect x="796" y="246" width="10" height="8" rx="2" fill="#FFFFFF"/>
  <rect x="720" y="178" width="84" height="62" rx="4" fill="#E5E7EB"/>
  <rect x="820" y="164" width="10" height="8" rx="2" fill="#FFFFFF"/>
  <rect x="820" y="246" width="10" height="8" rx="2" fill="#FFFFFF"/>
  <rect x="838" y="164" width="10" height="8" rx="2" fill="#FFFFFF"/>
  <rect x="838" y="246" width="10" height="8" rx="2" fill="#FFFFFF"/>
  <rect x="856" y="164" width="10" height="8" rx="2" fill="#FFFFFF"/>
  <rect x="856" y="246" width="10" height="8" rx="2" fill="#FFFFFF"/>
  <rect x="874" y="164" width="10" height="8" rx="2" fill="#FFFFFF"/>
  <rect x="874" y="246" width="10" height="8" rx="2" fill="#FFFFFF"/>
  <rect x="892" y="164" width="10" height="8" rx="2" fill="#FFFFFF"/>
  <rect x="892" y="246" width="10" height="8" rx="2" fill="#FFFFFF"/>
  <rect x="816" y="178" width="84" height="62" rx="4" fill="#E5E7EB"/>
  <g transform="translate(372 206) scale(0.9)"><circle cx="-10" cy="-10" r="30" fill="#FFFFFF" stroke="#1F2937" stroke-width="7"/><line x1="12" y1="12" x2="40" y2="40" stroke="#1F2937" stroke-width="11" stroke-linecap="round"/></g>
  <text x="476" y="290" font-size="24" font-weight="700" text-anchor="middle" fill="#8A5D00">首幀</text>
  <line x1="620" y1="270" x2="330" y2="344" stroke="#374151" stroke-width="4" stroke-linecap="butt" marker-end="url(#arr)"/>
  <line x1="700" y1="270" x2="890" y2="344" stroke="#374151" stroke-width="4" stroke-linecap="butt" marker-end="url(#arr)"/>
  <rect x="48" y="352" width="528" height="290" rx="24" fill="#FDECEC" stroke="#B91C1C" stroke-width="3"/>
  <text x="84" y="406" font-size="34" font-weight="700" fill="#B91C1C">第一格就錯了</text>
  <rect x="84.0" y="430.0" width="108.0" height="44" rx="22.0" fill="#B91C1C"/>
  <text x="138" y="460.64" font-size="24" font-weight="700" text-anchor="middle" fill="#FFFFFF">先修圖</text>
  <circle cx="90" cy="511.16" r="6" fill="#B91C1C"/>
  <text x="108" y="520" font-size="26" fill="#1F2937">道具、服裝不對</text>
  <circle cx="90" cy="555.16" r="6" fill="#B91C1C"/>
  <text x="108" y="564" font-size="26" fill="#1F2937">構圖或身分特徵不對</text>
  <circle cx="90" cy="599.16" r="6" fill="#B91C1C"/>
  <text x="108" y="608" font-size="26" fill="#1F2937">影片只會忠實放大錯誤</text>
  <rect x="624" y="352" width="528" height="290" rx="24" fill="#EAF1F8" stroke="#2C5B8F" stroke-width="3"/>
  <text x="660" y="406" font-size="34" font-weight="700" fill="#2C5B8F">首幀對，動起來才錯</text>
  <rect x="660.0" y="430.0" width="180.0" height="44" rx="22.0" fill="#2C5B8F"/>
  <text x="750" y="460.64" font-size="24" font-weight="700" text-anchor="middle" fill="#FFFFFF">改指令再生成</text>
  <circle cx="666" cy="511.16" r="6" fill="#2C5B8F"/>
  <text x="684" y="520" font-size="26" fill="#1F2937">動作沒發生</text>
  <circle cx="666" cy="555.16" r="6" fill="#2C5B8F"/>
  <text x="684" y="564" font-size="26" fill="#1F2937">方向相反、倒放</text>
  <circle cx="666" cy="599.16" r="6" fill="#2C5B8F"/>
  <text x="684" y="608" font-size="26" fill="#1F2937">鏡頭亂動</text>
  <rect x="48" y="670" width="1104" height="76" rx="20" fill="#FFF8E7" stroke="#E5A300" stroke-width="2"/>
  <text x="600.0" y="718.8" font-size="30" font-weight="700" text-anchor="middle" fill="#1F2937">錯在圖上就<tspan fill="#8A5D00">先修圖</tspan>，圖對了才改指令</text>
</svg>
