<svg xmlns="http://www.w3.org/2000/svg" width="120" height="40" viewBox="0 0 120 40">
  <defs>
    <style>
      .cls-1 {
        fill: #221815;
      }
    </style>
  </defs>
  <g id="圖層_2" data-name="圖層 2">
    <g>
      <path class="cls-1" d="M83.09,27a1.74,1.74,0,0,1-1.28-.53,1.86,1.86,0,0,1-.56-1.28V9.29A1.86,1.86,0,0,1,81.81,8a1.74,1.74,0,0,1,1.28-.53h.38V7.19H72.35v.29h.54a1.67,1.67,0,0,1,1.25.5,1.8,1.8,0,0,1,.54,1.25V19L60.9,6.76h-.29A18.52,18.52,0,0,1,61,10.35V25.1L52.31,6.5h-.26a4.26,4.26,0,0,1-.24,1c-.14.4-.31.82-.49,1.26S51,9.59,50.8,10s-.29.65-.38.82l-3.65,7.76-7-11.7v0h-.26l-6,10.91L28.41,8.11s0-.06,0-.09a1.26,1.26,0,0,1,1-.46h.26V7.27h-7.8l-.39,0c-.94-.09-1.85-.15-2.73-.2S17.18,7,16.66,7a10.62,10.62,0,0,0-4.13.73A6.63,6.63,0,0,0,9.7,9.84a7.27,7.27,0,0,0-1.31,3.48,7.2,7.2,0,0,0,.8,4.51A7.61,7.61,0,0,0,12.76,21l5.78,2.69a9.35,9.35,0,0,1,2.89,1.85,2.92,2.92,0,0,1,.87,2.06A3.17,3.17,0,0,1,21.08,30,5.67,5.67,0,0,1,17.3,31,8.4,8.4,0,0,1,13,30a6.83,6.83,0,0,1-2.66-2.7,6.55,6.55,0,0,1-.78-3.51H9.28a6.77,6.77,0,0,0-1,2,10.26,10.26,0,0,0-.48,2.54,4.78,4.78,0,0,0,.32,2.16A5.82,5.82,0,0,0,10,31.64a13,13,0,0,0,2.86.84,20.07,20.07,0,0,0,3.72.32,13.89,13.89,0,0,0,8-2A7.18,7.18,0,0,0,27.69,25a6.68,6.68,0,0,0-1-4.29,7.05,7.05,0,0,0-3.12-2.59L17,15a13.26,13.26,0,0,1-2.29-1.31,2.08,2.08,0,0,1-.87-2A2.76,2.76,0,0,1,15.2,9.58a6.21,6.21,0,0,1,3.44-.84,6.89,6.89,0,0,1,3.61.87L30.94,28h.26a7.43,7.43,0,0,1,.21-1.53c.13-.48.56-1.67.56-1.67l4.55-9.3,6.19,11.65-1.66,3.53a3,3,0,0,1-1.15,1.37,2.65,2.65,0,0,1-1.36.42h-.26v.29h6.41v-.29h-.26a1.3,1.3,0,0,1-.7-.22,1.16,1.16,0,0,1-.51-.62,1.24,1.24,0,0,1,.08-.83l3.76-8.29h6l1.12,2.67h0a1.16,1.16,0,0,1-.07,1.34,1.39,1.39,0,0,1-1,.47h-.26v.29H69.21V27h-.54a1.67,1.67,0,0,1-1.24-.52,1.65,1.65,0,0,1-.52-1.23h0l0-9.91,8.47,7.36v2.49a1.86,1.86,0,0,1-.56,1.28,1.73,1.73,0,0,1-1.28.53h-.38v.29H83.47V27h-.38ZM47.72,21.11l2.5-5.5,2.29,5.5Z"/>
      <path class="cls-1" d="M105,7.19v.29h.34a1,1,0,0,1,.7.27,1.3,1.3,0,0,1,.42.69,1,1,0,0,1-.11.82h0l-4.09,7.09-4-7.09h0a1.16,1.16,0,0,1,0-1.19,1.07,1.07,0,0,1,1-.59h.34V7.19H88.07v.26h.29a.83.83,0,0,1,.82.43.86.86,0,0,1-.13.92h0l-6.88,9.37L83,19.56c.25.4.52.84.83,1.32l.91,1.42c.29.47.57.89.82,1.27l.6.87c.56.77,3.56,4.54,4.32,4.95a8.39,8.39,0,0,0,2.26.83,11.36,11.36,0,0,0,2,.26l1.18,0h1.44v.89a1.86,1.86,0,0,1-.56,1.28,1.75,1.75,0,0,1-1.28.54h-.38v.28h10.3v-.28h-.35a1.76,1.76,0,0,1-1.29-.54,1.7,1.7,0,0,1-.55-1.28v-12l6.05-10.68a4.3,4.3,0,0,1,.81-.7,3.06,3.06,0,0,1,1.68-.51h.41V7.19ZM95.94,28l-9-13.31,4.8-5.8c.06.08.14.16.19.24h0l5.45,8.89V29.62A6.17,6.17,0,0,1,95.94,28Z"/>
    </g>
  </g>
</svg>
